HIERARCHY
ROOT Hips
{
  OFFSET -43.3411 73.6987 0
  CHANNELS 6 Xposition Yposition Zposition Zrotation Xrotation Yrotation
  JOINT Bip01_Pelvis
  {
    OFFSET 0 0 0
    CHANNELS 6 Xposition Yposition Zposition Zrotation Xrotation Yrotation
    JOINT BN_Tail_01
    {
      OFFSET -18.6385 -9.591 -2.032e-005
      CHANNELS 6 Xposition Yposition Zposition Zrotation Xrotation Yrotation
      JOINT BN_Tail_02
      {
        OFFSET 20.9743 0 0
        CHANNELS 6 Xposition Yposition Zposition Zrotation Xrotation Yrotation
        JOINT BN_Tail_03
        {
          OFFSET 20.3015 0 0
          CHANNELS 6 Xposition Yposition Zposition Zrotation Xrotation Yrotation
          JOINT BN_Tail_04
          {
            OFFSET 21.6394 -9.91821e-005 0
            CHANNELS 6 Xposition Yposition Zposition Zrotation Xrotation Yrotation
            End Site
            {
              OFFSET 0 0 0
            }
          }
        }
      }
    }
    JOINT Bip01_Spine
    {
      OFFSET 22.1878 -0.659386 3.048e-005
      CHANNELS 6 Xposition Yposition Zposition Zrotation Xrotation Yrotation
      JOINT Bip01_R_Thigh
      {
        OFFSET -22.1873 0.677109 -17.1024
        CHANNELS 6 Xposition Yposition Zposition Zrotation Xrotation Yrotation
        JOINT Bip01_R_Calf
        {
          OFFSET 34.2647 0 0
          CHANNELS 6 Xposition Yposition Zposition Zrotation Xrotation Yrotation
          JOINT Bip01_R_HorseLink
          {
            OFFSET 20.4429 0 0
            CHANNELS 6 Xposition Yposition Zposition Zrotation Xrotation Yrotation
            JOINT Bip01_R_Foot
            {
              OFFSET 16.5673 0 0
              CHANNELS 6 Xposition Yposition Zposition Zrotation Xrotation Yrotation
              JOINT Bip01_R_Toe0
              {
                OFFSET 9.18784 6.94841 0
                CHANNELS 6 Xposition Yposition Zposition Zrotation Xrotation Yrotation
                JOINT Bip01_R_Toe0Nub
                {
                  OFFSET 1.01907 0 0
                  CHANNELS 6 Xposition Yposition Zposition Zrotation Xrotation Yrotation
                  End Site
                  {
                    OFFSET 0 0 0
                  }
                }
              }
            }
          }
        }
      }
      JOINT Bip01_L_Thigh
      {
        OFFSET -22.1873 0.67701 17.1024
        CHANNELS 6 Xposition Yposition Zposition Zrotation Xrotation Yrotation
        JOINT Bip01_L_Calf
        {
          OFFSET 34.2647 0 0
          CHANNELS 6 Xposition Yposition Zposition Zrotation Xrotation Yrotation
          JOINT Bip01_L_HorseLink
          {
            OFFSET 20.4429 0 0
            CHANNELS 6 Xposition Yposition Zposition Zrotation Xrotation Yrotation
            JOINT Bip01_L_Foot
            {
              OFFSET 16.5673 0 0
              CHANNELS 6 Xposition Yposition Zposition Zrotation Xrotation Yrotation
              JOINT Bip01_L_Toe0
              {
                OFFSET 9.18784 6.9484 1.14441e-005
                CHANNELS 6 Xposition Yposition Zposition Zrotation Xrotation Yrotation
                JOINT Bip01_L_Toe0Nub
                {
                  OFFSET 1.01907 0 0
                  CHANNELS 6 Xposition Yposition Zposition Zrotation Xrotation Yrotation
                  End Site
                  {
                    OFFSET 0 0 0
                  }
                }
              }
            }
          }
        }
      }
      JOINT Bip01_Spine1
      {
        OFFSET 39.3372 -0.0249863 0
        CHANNELS 6 Xposition Yposition Zposition Zrotation Xrotation Yrotation
        JOINT Bip01_Neck
        {
          OFFSET 34.2837 -15.5934 -4.318e-005
          CHANNELS 6 Xposition Yposition Zposition Zrotation Xrotation Yrotation
          JOINT Bip01_R_Clavicle
          {
            OFFSET -17.9452 -11.3131 -6.19287
            CHANNELS 6 Xposition Yposition Zposition Zrotation Xrotation Yrotation
            JOINT Bip01_R_UpperArm
            {
              OFFSET 17.4439 1.52588e-005 -2.28882e-005
              CHANNELS 6 Xposition Yposition Zposition Zrotation Xrotation Yrotation
              JOINT Bip01_R_Forearm
              {
                OFFSET 30.6251 1.14441e-005 0
                CHANNELS 6 Xposition Yposition Zposition Zrotation Xrotation Yrotation
                JOINT Bip01_R_Hand
                {
                  OFFSET 31.2039 0 0
                  CHANNELS 6 Xposition Yposition Zposition Zrotation Xrotation Yrotation
                  JOINT Bip01_R_Finger0
                  {
                    OFFSET 22.1039 0.255862 -0.37902
                    CHANNELS 6 Xposition Yposition Zposition Zrotation Xrotation Yrotation
                    JOINT Bip01_R_Finger0Nub
                    {
                      OFFSET 12.0552 0 0
                      CHANNELS 6 Xposition Yposition Zposition Zrotation Xrotation Yrotation
                      End Site
                      {
                        OFFSET 0 0 0
                      }
                    }
                  }
                }
              }
            }
          }
          JOINT Bip01_L_Clavicle
          {
            OFFSET -17.9452 -11.3132 6.19281
            CHANNELS 6 Xposition Yposition Zposition Zrotation Xrotation Yrotation
            JOINT Bip01_L_UpperArm
            {
              OFFSET 17.444 0 1.14441e-005
              CHANNELS 6 Xposition Yposition Zposition Zrotation Xrotation Yrotation
              JOINT Bip01_L_Forearm
              {
                OFFSET 30.6251 0 0
                CHANNELS 6 Xposition Yposition Zposition Zrotation Xrotation Yrotation
                JOINT Bip01_L_Hand
                {
                  OFFSET 31.204 0 0
                  CHANNELS 6 Xposition Yposition Zposition Zrotation Xrotation Yrotation
                  JOINT Bip01_L_Finger0
                  {
                    OFFSET 22.1039 0.255856 0.379024
                    CHANNELS 6 Xposition Yposition Zposition Zrotation Xrotation Yrotation
                    JOINT Bip01_L_Finger0Nub
                    {
                      OFFSET 12.0552 0 0
                      CHANNELS 6 Xposition Yposition Zposition Zrotation Xrotation Yrotation
                      End Site
                      {
                        OFFSET 0 0 0
                      }
                    }
                  }
                }
              }
            }
          }
          JOINT Bip01_Neck1
          {
            OFFSET 14.9359 -0.0106278 0
            CHANNELS 6 Xposition Yposition Zposition Zrotation Xrotation Yrotation
            JOINT Bip01_Head
            {
              OFFSET 14.3578 0.505501 0
              CHANNELS 6 Xposition Yposition Zposition Zrotation Xrotation Yrotation
              JOINT BN_Ear_L_01
              {
                OFFSET 3.76994 -2.35629 12.3444
                CHANNELS 6 Xposition Yposition Zposition Zrotation Xrotation Yrotation
                End Site
                {
                  OFFSET 0 0 0
                }
              }
              JOINT BN_Ear_R_01
              {
                OFFSET 3.76995 -2.35622 -12.3442
                CHANNELS 6 Xposition Yposition Zposition Zrotation Xrotation Yrotation
                End Site
                {
                  OFFSET 0 0 0
                }
              }
              JOINT BN_Mouth_01
              {
                OFFSET 11.8395 10.8645 1.27e-005
                CHANNELS 6 Xposition Yposition Zposition Zrotation Xrotation Yrotation
                JOINT BN_Tongue_01
                {
                  OFFSET 9.73752 3.21674 1.016e-005
                  CHANNELS 6 Xposition Yposition Zposition Zrotation Xrotation Yrotation
                  JOINT BN_Tongue_02
                  {
                    OFFSET 9.04304 0.053505 0
                    CHANNELS 6 Xposition Yposition Zposition Zrotation Xrotation Yrotation
                    End Site
                    {
                      OFFSET 0 0 0
                    }
                  }
                }
                JOINT BN_Beard_01
                {
                  OFFSET 6.93466 -0.751793 0
                  CHANNELS 6 Xposition Yposition Zposition Zrotation Xrotation Yrotation
                  JOINT BN_Beard_02
                  {
                    OFFSET 13.0965 1.52588e-005 0
                    CHANNELS 6 Xposition Yposition Zposition Zrotation Xrotation Yrotation
                    End Site
                    {
                      OFFSET 0 0 0
                    }
                  }
                }
              }
              JOINT Bip01_HeadNub
              {
                OFFSET 25.6158 0 0
                CHANNELS 6 Xposition Yposition Zposition Zrotation Xrotation Yrotation
                End Site
                {
                  OFFSET 0 0 0
                }
              }
            }
          }
        }
      }
    }
  }
}
MOTION
Frames:	4
Frame Time:	0.0333333
-55.3032 56.1874 3.19786 -142.138 -89.3616 -52.9288 7.10543e-015 4.76837e-007 0 -86.4183 -4.16243 -83.8104 -18.6385 -9.591 -1.77636e-015 -39.9535 0.279983 -179.861 20.9743 -7.6294e-006 -0.000617027 24.8822 -1.86797 -19.4215 20.3015 1.52588e-005 -2.98428e-013 19.5334 -1.82115 -23.7939 21.6393 -1.52588e-005 1.90735e-006 -2.27734 -3.94637 -5.69572 21.9512 -2.26566 2.4204 0.100442 -2.64398 -1.94238 -22.5922 3.20412 -18.6401 -108.2 -6.76716 167.369 34.2647 -3.8147e-006 -7.6294e-006 -108.641 -3.15468e-006 8.9945e-006 20.4429 -1.95399e-013 3.8147e-006 81.9143 2.99855e-007 3.29883e-007 16.5673 -7.62939e-006 3.8147e-006 15.0356 -5.07635 10.6927 9.1875 6.94886 0.00142289 90.7683 1.72123e-005 0.00053497 1.01906 2.38419e-007 0 9.18723e-008 1.39e-008 -4.35397e-007 -21.4334 1.62502 15.5087 -128.652 7.0567 -170.06 34.2647 -9.53674e-007 -1.14441e-005 -98.1081 2.05216e-006 -1.79759e-005 20.4429 3.8147e-006 -1.90735e-006 108.297 -3.24056e-006 -9.07326e-006 16.5673 -1.90735e-006 1.90735e-006 -37.0342 -16.223 -3.31383 9.18784 6.94841 -3.79519e-006 83.5961 -0.00221515 -0.000258776 1.01907 -9.57013e-014 -3.8147e-006 -179.96 -7.70902e-005 4.47541e-005 39.3426 -0.0241737 -0.000957966 11.8022 4.35602 7.31121 34.2902 -15.5918 3.24321e-005 37.9363 -10.4076 4.5238 -20.6616 2.18196 -7.55174 139.472 -49.0184 96.5122 17.4439 0 -2.4869e-014 41.898 20.0286 -83.7679 30.6251 -7.6294e-006 -1.90735e-006 -75.2944 2.26165e-006 9.78893e-006 31.2039 -9.53676e-007 3.81469e-006 -15.5469 72.3356 -14.7886 22.1039 0.255847 -0.379034 -6.68887 10.5183 -25.3192 12.0552 1.90736e-006 5.96045e-008 179.96 -1.06879e-005 -1.34046e-005 -21.6228 -0.0556141 4.59222 144.446 32.148 -85.9625 17.4439 -7.6294e-006 3.8147e-006 46.3703 -51.9285 69.6095 30.6251 1.90735e-006 4.47642e-013 -72.2892 -8.15746e-006 -5.68152e-006 31.2039 -7.62941e-006 -3.81469e-006 165.593 -56.9396 -168.101 22.1039 0.255856 0.379024 -5.6169 10.7221 14.9554 12.0552 -1.90735e-006 3.81469e-006 2.78076e-008 9.2818e-007 2.56879e-007 14.9354 -0.010643 0.000165462 16.4133 -4.69515 -6.74626 14.3578 0.505493 -4.7005e-007 2.74482 -1.40687 -8.45317 3.76993 -2.35629 12.3444 -173.567 0.81953 -82.2876 3.76993 -2.35622 -12.3442 4.37169 31.3486 98.5079 11.8395 10.8645 -4.3522e-007 -177 -3.75801 178.787 9.7375 3.21676 -4.26892e-008 -2.85749 -4.06096e-007 9.88463e-006 2.55461 -1.1059 -0.15377 4.77837 -2.94618 -1.72235 6.93466 -0.751774 9.63651e-007 -12.3048 -0.922385 -0.938505 13.0966 7.6294e-006 -2.38419e-007 -7.89266 -1.6355 -12.1212 25.6158 1.42109e-014 -3.55271e-015 -6.51516e-008 1.02264e-006 9.98726e-006 
-55.6154 56.1741 3.29585 -134.346 -89.279 -45.1354 0 4.76837e-007 -7.10543e-015 -86.2097 -4.04466 -83.7194 -18.6385 -9.591 -1.77636e-015 -38.7668 0.420415 -179.073 20.9743 -7.6294e-006 -0.000617027 24.3956 -1.89922 -18.1616 20.3015 1.52588e-005 -2.54019e-013 21.8761 -1.87351 -24.7669 21.6393 -1.52588e-005 1.90735e-006 0.862718 -2.65941 -7.52983 21.9516 -2.22062 2.45871 0.351207 -2.8107 -1.54057 -22.4525 3.31223 -18.8244 -108.915 -6.22366 167.54 34.2647 -3.8147e-006 -7.6294e-006 -109.305 -3.83276e-006 8.7549e-006 20.4429 -1.93623e-013 3.8147e-006 82.1608 1.02266e-005 1.69108e-006 16.5673 -7.62939e-006 3.8147e-006 14.8112 -5.22672 10.5429 9.1875 6.94886 0.00142289 90.8572 7.22253e-009 -4.73895e-005 1.01906 2.38419e-007 0 9.18723e-008 1.39e-008 -4.35397e-007 -21.5327 1.63463 15.327 -129.205 7.3384 -169.665 34.2647 -9.53674e-007 -1.14441e-005 -97.9545 2.00333e-006 -1.79841e-005 20.4429 3.8147e-006 -1.90735e-006 107.655 -3.13705e-006 -9.11034e-006 16.5673 -1.90735e-006 1.90735e-006 -36.9427 -16.3485 -3.41043 9.18784 6.94841 -3.79467e-006 83.5809 -0.00183497 -0.000216603 1.01907 -9.19265e-014 -3.8147e-006 -179.96 -7.70902e-005 4.47541e-005 39.3428 -0.0241737 -0.000957966 12.2736 4.41144 7.32731 34.2902 -15.5918 3.24335e-005 38.2091 -9.65714 6.08046 -20.4421 2.20419 -8.12087 141.008 -49.6173 98.63 17.4439 0 1.77636e-014 41.5197 20.7143 -83.2742 30.6251 -7.6294e-006 -1.90735e-006 -75.6371 2.30483e-006 9.91314e-006 31.2039 -9.53676e-007 3.81469e-006 -16.7216 72.2 -14.5303 22.1039 0.255847 -0.379034 -6.52079 10.4581 -25.1317 12.0552 1.90736e-006 5.96045e-008 179.96 -1.06879e-005 -1.34045e-005 -21.736 0.126028 4.02048 143.084 31.901 -84.006 17.4439 -7.6294e-006 3.8147e-006 47.9722 -52.2231 70.4825 30.6251 1.90735e-006 4.90274e-013 -72.6303 -7.74191e-006 -5.48497e-006 31.2039 -7.62941e-006 -3.81469e-006 164.736 -56.0091 -169.26 22.1039 0.255856 0.379024 -5.62188 10.7096 14.7755 12.0552 -1.90735e-006 3.81469e-006 2.78076e-008 9.2818e-007 2.56879e-007 14.9354 -0.010643 0.000165462 16.2307 -4.31237 -5.37762 14.3578 0.505493 -4.65995e-007 4.70572 0.513565 -6.55842 3.76993 -2.35629 12.3444 -173.57 -0.477762 -78.8675 3.76993 -2.35622 -12.3442 4.13824 32.0474 96.0901 11.8395 10.8645 -2.78892e-007 -176.737 -3.7271 178.804 9.7375 3.21676 3.25354e-009 -2.85749 -3.82835e-007 9.92542e-006 2.55461 -1.1059 -0.15377 4.77837 -2.94618 -1.72235 6.93466 -0.751774 9.52914e-007 -9.84028 -6.36401 2.36819 13.0966 7.6294e-006 -2.38419e-007 -7.89266 -1.6355 -12.1212 25.6158 0 -3.55271e-015 -6.51514e-008 1.02264e-006 9.98726e-006 
-55.8984 56.1666 3.39215 -129.074 -89.2004 -39.8715 7.10543e-015 4.76837e-007 0 -86.1055 -3.93665 -83.671 -18.6385 -9.591 -3.55271e-015 -37.6043 0.686794 -178.084 20.9743 -7.6294e-006 -0.000617027 23.8688 -1.84041 -16.6148 20.3015 1.52588e-005 -2.04725e-013 23.6297 -1.7006 -24.5439 21.6393 -1.52588e-005 1.90735e-006 3.96475 -1.55442 -9.42748 21.9537 -2.17925 2.47849 0.779093 -2.92033 -0.99124 -22.2556 3.47328 -19.0461 -109.552 -5.67464 167.816 34.2647 -3.8147e-006 -7.6294e-006 -109.761 -1.2766e-005 5.53932e-006 20.4429 -1.93623e-013 3.8147e-006 82.7513 4.31359e-007 3.34849e-007 16.5673 -7.62939e-006 3.8147e-006 14.3208 -5.37248 10.3966 9.1875 6.94886 0.00142289 90.85 7.32179e-009 -8.55744e-007 1.01906 2.38419e-007 0 9.18723e-008 1.39e-008 -4.35397e-007 -21.6632 1.72937 15.1092 -129.95 7.66605 -169.167 34.2647 -9.53674e-007 -1.14441e-005 -97.8788 1.97892e-006 -1.79891e-005 20.4429 3.8147e-006 -1.90735e-006 107.073 -3.04313e-006 -9.14307e-006 16.5673 -1.90735e-006 1.90735e-006 -36.8448 -16.459 -3.50266 9.18784 6.94841 -3.79428e-006 83.5654 -0.00150912 -0.000180361 1.01907 -9.23706e-014 -3.8147e-006 -179.96 -7.70902e-005 4.47541e-005 39.343 -0.0241737 -0.000957966 12.7581 4.29935 7.22843 34.2902 -15.5918 3.24347e-005 38.3036 -9.06309 7.51363 -20.2281 2.1765 -8.64717 142.599 -50.2826 100.552 17.4439 -2.84217e-014 1.59872e-014 40.8912 21.5392 -82.6517 30.6251 -7.6294e-006 -1.90735e-006 -75.6708 2.40759e-006 1.00047e-005 31.2039 -9.53676e-007 3.81469e-006 -18.6086 72.3283 -14.1257 22.1039 0.255847 -0.379034 -6.31065 10.3679 -24.8582 12.0552 1.90736e-006 5.96045e-008 179.96 -1.06879e-005 -1.34044e-005 -21.8284 0.224967 3.47863 142.004 31.5575 -82.2536 17.4439 -7.6294e-006 3.8147e-006 50.1081 -52.2564 71.5994 30.6251 1.90735e-006 4.97379e-013 -73.5548 2.36593e-006 -8.14975e-006 31.2039 -7.62941e-006 -3.81469e-006 164.031 -55.0036 -170.454 22.1039 0.255856 0.379024 -5.6288 10.6937 14.5597 12.0552 -1.90735e-006 3.81469e-006 2.78076e-008 9.2818e-007 2.56879e-007 14.9354 -0.010643 0.000165462 15.8167 -4.78502 -3.6016 14.3578 0.505493 -4.61226e-007 6.27513 2.13142 -4.85507 3.76993 -2.35629 12.3444 -173.449 -2.10361 -75.5455 3.76993 -2.35622 -12.3442 3.98072 32.5454 93.733 11.8395 10.8645 -9.80787e-008 -174.665 -3.7144 178.945 9.7375 3.21676 5.39725e-008 -2.85749 -3.49054e-007 9.97046e-006 2.55461 -1.1059 -0.15377 4.77834 -2.94618 -1.72235 6.93466 -0.751774 9.41061e-007 -5.51356 -10.2643 6.67215 13.0966 7.6294e-006 -2.38419e-007 -7.89266 -1.6355 -12.1212 25.6158 3.55272e-014 3.55271e-015 -6.51512e-008 1.02264e-006 9.98726e-006 
-56.1628 56.1619 3.48994 -125.654 -89.1353 -36.4678 -7.10543e-015 4.76837e-007 0 -86.0411 -3.8315 -83.6565 -18.6385 -9.591 -2.66454e-015 -36.4714 1.06626 -176.926 20.9743 -7.6294e-006 -0.000617027 23.2991 -1.73244 -14.8143 20.3015 1.52588e-005 -1.45661e-013 25.224 -1.40286 -24.2503 21.6393 -1.52588e-005 1.90735e-006 7.71708 -0.0704569 -11.2877 21.9573 -2.13775 2.48483 1.37279 -3.02726 -0.295683 -22.0006 3.69536 -19.3047 -110.157 -5.08983 168.192 34.2647 -3.8147e-006 -7.6294e-006 -110.102 -3.71893e-006 8.78677e-006 20.4429 -1.97176e-013 3.8147e-006 83.6328 3.10492e-007 3.12119e-007 16.5673 -7.62939e-006 3.8147e-006 13.6164 -5.50118 10.2476 9.1875 6.94886 0.00142289 90.85 7.44267e-009 -8.56332e-007 1.01906 2.38419e-007 0 9.18723e-008 1.39e-008 -4.35397e-007 -21.8225 1.88792 14.852 -130.876 8.04224 -168.564 34.2647 -9.53674e-007 -1.14441e-005 -97.8317 1.96335e-006 -1.79927e-005 20.4429 3.8147e-006 -1.90735e-006 106.501 -2.95083e-006 -9.17443e-006 16.5673 -1.90735e-006 1.90735e-006 -36.7169 -16.5649 -3.60312 9.18784 6.94841 -3.79382e-006 83.5498 -0.00115615 -0.000140876 1.01907 -9.9254e-014 -3.8147e-006 -179.96 -7.70902e-005 4.47541e-005 39.3432 -0.0241737 -0.000957966 13.2581 4.03741 7.02686 34.2901 -15.5918 3.2436e-005 38.2613 -8.53275 8.89125 -20.0125 2.10547 -9.15166 144.319 -50.9792 102.418 17.4439 -5.68435e-014 0 40.0211 22.4879 -81.88 30.6251 -7.6294e-006 -1.90735e-006 -75.4812 2.55798e-006 1.00721e-005 31.2039 -9.53676e-007 3.81469e-006 -21.1472 72.6755 -13.5189 22.1039 0.255847 -0.379034 -6.05856 10.2525 -24.4967 12.0552 1.90736e-006 5.96045e-008 179.96 -1.06879e-005 -1.34045e-005 -21.9057 0.267665 2.9497 141.111 31.1712 -80.598 17.4439 -7.6294e-006 3.8147e-006 52.7358 -52.061 72.9287 30.6251 1.90735e-006 5.40012e-013 -74.9693 -6.66394e-006 -5.13601e-006 31.2039 -7.62941e-006 -3.81469e-006 163.447 -53.8961 -171.706 22.1039 0.255856 0.379024 -5.63645 10.6767 14.3291 12.0552 -1.90735e-006 3.81469e-006 2.78076e-008 9.2818e-007 2.56879e-007 14.9354 -0.010643 0.000165462 15.3041 -5.7115 -1.62366 14.3578 0.505493 -4.56085e-007 7.70653 3.70059 -3.23061 3.76993 -2.35629 12.3444 -173.149 -4.14836 -72.747 3.76993 -2.35622 -12.3442 3.89433 32.77 91.9515 11.8395 10.8645 1.0293e-007 -171.118 -3.75215 179.183 9.7375 3.21676 1.06048e-007 -2.85749 -2.76351e-007 1.00167e-005 2.55461 -1.1059 -0.15377 4.77834 -2.94618 -1.72235 6.93466 -0.751774 9.28891e-007 0.531719 -13.3452 11.6397 13.0966 7.6294e-006 -2.38419e-007 -7.89266 -1.6355 -12.1212 25.6158 0 -7.10543e-015 -6.5151e-008 1.02264e-006 9.98722e-006 
